<svg width="1565" height="553" viewBox="0 0 1565 553" fill="none" xmlns="http://www.w3.org/2000/svg">
<path d="M0 0H1565V553H0V0Z" fill="#D9D9D9"/>
<path d="M52.2837 506.993V47.734H208.042V113.134H138.634V441.593H208.042V506.993H52.2837Z" fill="black"/>
<path d="M326.864 464H229.948L355.83 90.9091H475.882L601.764 464H504.848L417.222 184.91H414.308L326.864 464ZM313.93 317.168H516.507V385.665H313.93V317.168Z" fill="black"/>
<path d="M641.933 464V90.9091H796.052C823.985 90.9091 848.093 95.9492 868.375 106.029C888.778 115.988 904.506 130.319 915.557 149.022C926.609 167.604 932.135 189.647 932.135 215.151C932.135 241.02 926.488 263.002 915.193 281.098C903.898 299.072 887.867 312.796 867.099 322.269C846.332 331.621 821.738 336.297 793.319 336.297H695.856V265.249H776.559C790.161 265.249 801.517 263.488 810.626 259.966C819.856 256.322 826.839 250.857 831.576 243.57C836.312 236.162 838.68 226.689 838.68 215.151C838.68 203.614 836.312 194.08 831.576 186.55C826.839 178.899 819.856 173.191 810.626 169.426C801.396 165.539 790.04 163.596 776.559 163.596H732.109V464H641.933ZM851.979 293.486L944.887 464H846.514L755.427 293.486H851.979Z" fill="black"/>
<path d="M1320.26 226.082H1229.17C1227.95 216.73 1225.46 208.289 1221.7 200.76C1217.93 193.23 1212.96 186.793 1206.76 181.449C1200.57 176.105 1193.22 172.037 1184.72 169.244C1176.34 166.329 1167.05 164.871 1156.85 164.871C1138.75 164.871 1123.14 169.304 1110.03 178.17C1097.03 187.036 1087.01 199.849 1079.97 216.609C1073.05 233.369 1069.58 253.651 1069.58 277.455C1069.58 302.23 1073.11 322.998 1080.15 339.758C1087.32 356.396 1097.34 368.966 1110.21 377.468C1123.2 385.848 1138.57 390.038 1156.3 390.038C1166.26 390.038 1175.31 388.762 1183.44 386.212C1191.7 383.662 1198.93 379.957 1205.12 375.099C1211.44 370.12 1216.6 364.108 1220.61 357.064C1224.74 349.899 1227.59 341.822 1229.17 332.835L1320.26 333.382C1318.68 349.899 1313.88 366.173 1305.86 382.204C1297.97 398.235 1287.1 412.87 1273.25 426.108C1259.41 439.224 1242.53 449.669 1222.61 457.442C1202.81 465.214 1180.1 469.101 1154.48 469.101C1120.71 469.101 1090.47 461.692 1063.76 446.876C1037.16 431.937 1016.15 410.198 1000.72 381.658C985.299 353.117 977.587 318.383 977.587 277.455C977.587 236.405 985.421 201.61 1001.09 173.069C1016.75 144.529 1037.95 122.85 1064.67 108.033C1091.39 93.2166 1121.32 85.8082 1154.48 85.8082C1177.07 85.8082 1197.96 88.9659 1217.15 95.2812C1236.33 101.475 1253.22 110.584 1267.79 122.607C1282.36 134.509 1294.2 149.144 1303.31 166.511C1312.42 183.878 1318.07 203.735 1320.26 226.082Z" fill="black"/>
<path d="M1509.21 47.734V506.993H1353.46V441.593H1422.86V113.134H1353.46V47.734H1509.21Z" fill="black"/>
<path d="M539.689 307.201V298.474H545.467V299.995H541.534V302.075H545.084V303.596H541.534V307.201H539.689Z" fill="black"/>
<path d="M547.003 307.201H545.026L548.038 298.474H550.416L553.425 307.201H551.447L549.261 300.468H549.193L547.003 307.201ZM546.879 303.771H551.55V305.211H546.879V303.771Z" fill="black"/>
</svg>
