<svg width="1458" height="460" viewBox="0 0 1458 460" fill="none" xmlns="http://www.w3.org/2000/svg">
<path d="M0.283738 459.993V0.734006H156.042V66.1342H86.6339V394.593H156.042V459.993H0.283738ZM274.864 417H177.948L303.83 43.9091H423.882L549.764 417H452.848L365.222 137.91H362.308L274.864 417ZM261.93 270.168H464.507V338.665H261.93V270.168ZM589.933 417V43.9091H744.052C771.985 43.9091 796.093 48.9492 816.375 59.0295C836.778 68.9883 852.506 83.3192 863.557 102.022C874.609 120.604 880.135 142.647 880.135 168.151C880.135 194.02 874.488 216.002 863.193 234.098C851.898 252.072 835.867 265.796 815.099 275.269C794.332 284.621 769.738 289.297 741.319 289.297H643.856V218.249H724.559C738.161 218.249 749.517 216.488 758.626 212.966C767.856 209.322 774.839 203.857 779.576 196.57C784.312 189.162 786.68 179.689 786.68 168.151C786.68 156.614 784.312 147.08 779.576 139.55C774.839 131.899 767.856 126.191 758.626 122.426C749.396 118.539 738.04 116.596 724.559 116.596H680.109V417H589.933ZM799.979 246.486L892.887 417H794.514L703.427 246.486H799.979ZM1268.26 179.082H1177.17C1175.95 169.73 1173.46 161.289 1169.7 153.76C1165.93 146.23 1160.96 139.793 1154.76 134.449C1148.57 129.105 1141.22 125.037 1132.72 122.244C1124.34 119.329 1115.05 117.871 1104.85 117.871C1086.75 117.871 1071.14 122.304 1058.03 131.17C1045.03 140.036 1035.01 152.849 1027.97 169.609C1021.05 186.369 1017.58 206.651 1017.58 230.455C1017.58 255.23 1021.11 275.998 1028.15 292.758C1035.32 309.396 1045.34 321.966 1058.21 330.468C1071.2 338.848 1086.57 343.038 1104.3 343.038C1114.26 343.038 1123.31 341.762 1131.44 339.212C1139.7 336.662 1146.93 332.957 1153.12 328.099C1159.44 323.12 1164.6 317.108 1168.61 310.064C1172.74 302.899 1175.59 294.822 1177.17 285.835L1268.26 286.382C1266.68 302.899 1261.88 319.173 1253.86 335.204C1245.97 351.235 1235.1 365.87 1221.25 379.108C1207.41 392.224 1190.53 402.669 1170.61 410.442C1150.81 418.214 1128.1 422.101 1102.48 422.101C1068.71 422.101 1038.47 414.692 1011.76 399.876C985.158 384.937 964.147 363.198 948.723 334.658C933.299 306.117 925.587 271.383 925.587 230.455C925.587 189.405 933.421 154.61 949.088 126.069C964.755 97.5288 985.948 75.8501 1012.67 61.0334C1039.39 46.2166 1069.32 38.8082 1102.48 38.8082C1125.07 38.8082 1145.96 41.9659 1165.15 48.2812C1184.33 54.4751 1201.22 63.5838 1215.79 75.6072C1230.36 87.5092 1242.2 102.144 1251.31 119.511C1260.42 136.878 1266.07 156.735 1268.26 179.082ZM1457.21 0.734006V459.993H1301.46V394.593H1370.86V66.1342H1301.46V0.734006H1457.21Z" fill="white"/>
</svg>
